<svg width="364" height="472" viewBox="0 0 364 472" fill="none" xmlns="http://www.w3.org/2000/svg">
<path fill-rule="evenodd" clip-rule="evenodd" d="M135.123 10.3035C134.558 10.9067 134.59 11.8532 135.194 12.4177L145.03 21.6159C145.634 22.1804 146.581 22.149 147.146 21.5458C147.711 20.9426 147.68 19.996 147.076 19.4315L139.897 12.7189C250.095 10.2132 321.411 61.2635 348.584 124.722C376.059 188.888 358.564 266.04 290.033 314.248C221.829 362.226 134.66 349.411 88.172 342.576L87.4734 342.473C75.9942 340.786 66.8978 339.464 61.3916 339.66C59.9984 339.71 58.7543 339.858 57.7202 340.154C56.7018 340.446 55.7255 340.927 55.0738 341.766C54.3766 342.663 54.2251 343.739 54.4361 344.817C54.6373 345.846 55.1724 346.931 55.9225 348.06C57.427 350.325 60.0751 353.171 63.8859 356.703C67.7166 360.255 72.7976 364.568 79.2362 369.771C92.1141 380.177 110.494 394.199 135.315 412.895C146.79 421.538 157.65 429.037 167.862 435.513C167.862 435.513 167.862 435.513 167.862 435.513C169.391 436.482 170.905 437.429 172.404 438.353C172.404 438.353 172.404 438.353 172.404 438.353C202.645 456.988 226.939 466.469 244.382 470.138C247.381 470.769 250.19 471.231 252.801 471.537C254.759 471.766 256.607 471.908 258.34 471.967C263.538 472.146 267.708 471.586 270.763 470.438C271.322 470.228 271.853 469.995 272.351 469.738L272.352 469.739C273.738 469.025 274.866 468.132 275.663 467.051C276.247 466.259 276.631 465.392 276.812 464.478C276.811 464.484 276.81 464.49 276.809 464.495C276.898 464.054 276.939 463.607 276.934 463.157C276.93 462.79 276.896 462.418 276.831 462.042C276.233 458.556 273.089 454.955 267.994 451.636C262.818 448.264 255.331 444.985 245.446 442.254C230.736 438.19 210.595 435.31 184.602 435.21C186.402 436.262 188.176 437.28 189.926 438.262C213.107 438.706 231.232 441.431 244.648 445.137C254.339 447.814 261.518 450.988 266.359 454.142C269.784 456.373 271.903 458.503 273.001 460.335C274.052 462.087 274.127 463.473 273.68 464.531C273.212 465.636 272.014 466.772 269.709 467.638C265.078 469.377 256.804 469.694 244.999 467.211C221.484 462.265 184.737 446.374 137.117 410.506C112.292 391.807 93.9511 377.814 81.1187 367.444C74.7022 362.259 69.6807 357.995 65.922 354.51C62.1433 351.007 59.715 348.36 58.4167 346.406C57.7654 345.425 57.4675 344.72 57.3742 344.243C57.2907 343.816 57.3831 343.672 57.4384 343.601C57.5392 343.471 57.8239 343.236 58.545 343.03C59.2505 342.828 60.2246 342.695 61.4982 342.65C66.6594 342.466 75.4087 343.724 87.0377 345.433L87.995 345.574C134.383 352.395 222.57 365.363 291.757 316.694C361.439 267.676 379.37 189.015 351.336 123.545C323.594 58.7571 250.998 7.17956 139.761 9.7297L146.514 2.51783C147.079 1.91463 147.048 0.968063 146.444 0.403614C145.84 -0.160835 144.893 -0.129421 144.328 0.473779L135.123 10.3035ZM276.647 465.126C276.587 465.317 276.517 465.507 276.437 465.696C276.437 465.696 276.437 465.696 276.437 465.696C275.757 467.305 274.438 468.592 272.672 469.567C272.566 469.625 272.459 469.682 272.351 469.738" fill="black"/>
<path d="M157.652 436.032C159.069 436.968 160.475 437.885 161.869 438.784C120.899 440.966 67.9869 449.517 1.92055 468.979C1.12758 469.212 0.295247 468.76 0.0614812 467.967C-0.172285 467.175 0.28104 466.343 1.07401 466.109C65.137 447.238 116.972 438.566 157.652 436.032Z" fill="black"/>
</svg>
