<svg width="412" height="708" viewBox="0 0 412 708" fill="none" xmlns="http://www.w3.org/2000/svg">
<path d="M54.4353 3.0716C53.6066 3.25777 53.0858 4.0801 53.2721 4.90833L56.3075 18.4051C56.4938 19.2333 57.3166 19.7538 58.1452 19.5676C58.9739 19.3814 59.4947 18.5591 59.3084 17.7309L57.0882 7.85924C272.67 144.788 370.662 263.981 399.449 357.649C413.899 404.667 410.913 445.246 396.638 478.483C382.357 511.737 356.725 537.759 325.696 555.554C294.783 573.281 255.003 578.213 215.698 577.926C184.58 577.698 153.931 574.206 128.388 571.296L128.387 571.296C121.676 570.531 115.319 569.807 109.397 569.192C95.2279 567.722 83.4516 566.868 75.4155 567.667C71.4238 568.063 68.1093 568.886 65.8802 570.437C64.7352 571.234 63.8448 572.245 63.3298 573.503C62.8157 574.76 62.7238 576.145 62.9815 577.615C63.4854 580.489 65.3586 583.872 68.4672 587.829C71.6045 591.823 76.1263 596.557 82.1508 602.145C94.2025 613.324 112.403 628.044 137.916 647.265C172.467 673.295 201.584 689.221 224.421 698.194C227.453 699.385 230.374 700.454 233.182 701.407C240.961 704.048 247.883 705.808 253.905 706.84C264.205 708.606 272.031 708.269 277.013 706.417C279.513 705.488 281.449 704.118 282.52 702.283C283.622 700.392 283.672 698.236 282.829 696.086C281.207 691.95 276.236 687.629 268.323 683.76C253.528 676.528 227.359 670.344 188.552 670.195C190.401 671.276 192.224 672.321 194.022 673.331C229.522 674.011 253.424 679.899 266.972 686.522C274.732 690.316 278.785 694.199 279.965 697.208C280.523 698.631 280.417 699.783 279.862 700.735C279.275 701.742 278.051 702.751 275.941 703.535C271.705 705.11 264.514 705.54 254.425 703.81C248.58 702.809 241.815 701.092 234.171 698.496C231.25 697.504 228.2 696.384 225.026 695.127C202.582 686.241 173.888 670.515 139.768 644.81C114.275 625.605 96.1762 610.961 84.243 599.892C78.275 594.356 73.883 589.746 70.8864 585.931C67.8611 582.08 66.3802 579.19 66.0111 577.085C65.8323 576.065 65.9241 575.284 66.1766 574.667C66.4282 574.052 66.8873 573.482 67.6374 572.96C69.1983 571.874 71.856 571.11 75.7198 570.726C83.3948 569.963 94.8626 570.774 109.08 572.25C114.95 572.859 121.272 573.579 127.957 574.341C153.51 577.253 184.375 580.771 215.676 581C255.155 581.288 295.6 576.357 327.226 558.22C358.737 540.15 384.879 513.656 399.465 479.696C414.057 445.719 417.03 404.385 402.389 356.746C373.274 262.011 274.507 142.311 58.7275 5.2581L68.6136 3.03703C69.4422 2.85085 69.963 2.02852 69.7767 1.20029C69.5905 0.372069 68.7677 -0.148419 67.939 0.0377525L54.4353 3.0716Z" fill="black"/>
<path d="M0 701.947C65.8328 682.549 119.084 673.642 160.865 671.039C162.32 672.001 163.765 672.944 165.197 673.868C123.091 676.111 68.7276 684.901 0.86971 704.895L0 701.947Z" fill="black"/>
</svg>
