<svg width="14" height="14" viewBox="0 0 14 14" fill="none" xmlns="http://www.w3.org/2000/svg">
<path fill-rule="evenodd" clip-rule="evenodd" d="M2.4 2H1.44C1.05792 2 0.691679 2.158 0.421919 2.4395C0.151679 2.7205 0 3.102 0 3.5C0 5.592 0 10.408 0 12.5C0 12.898 0.151679 13.2795 0.421919 13.5605C0.691679 13.842 1.05792 14 1.44 14C3.10224 14 6.49776 14 8.16 14C8.54208 14 8.90832 13.842 9.17808 13.5605C9.44832 13.2795 9.6 12.898 9.6 12.5V12H10.56C10.9421 12 11.3083 11.842 11.5781 11.5605C11.8483 11.2795 12 10.898 12 10.5C12 8.408 12 3.592 12 1.5C12 1.102 11.8483 0.720499 11.5781 0.439499C11.3083 0.157999 10.9421 0 10.56 0C8.89776 0 5.50224 0 3.84 0C3.45792 0 3.09168 0.157999 2.82192 0.439499C2.55168 0.720499 2.4 1.102 2.4 1.5V2ZM9.6 11H10.56C10.6872 11 10.8096 10.9475 10.8994 10.8535C10.9896 10.76 11.04 10.6325 11.04 10.5V1.5C11.04 1.3675 10.9896 1.24 10.8994 1.1465C10.8096 1.0525 10.6872 1 10.56 1H3.84C3.7128 1 3.5904 1.0525 3.50064 1.1465C3.4104 1.24 3.36 1.3675 3.36 1.5V2H8.16C8.54208 2 8.90832 2.158 9.17808 2.4395C9.44832 2.7205 9.6 3.102 9.6 3.5V11Z" fill="black"/>
</svg>
