<svg width="24" height="24" viewBox="0 0 24 24" fill="none" xmlns="http://www.w3.org/2000/svg">
<g clip-path="url(#clip0_681_5861)">
<path fill-rule="evenodd" clip-rule="evenodd" d="M12 0C12 6.62742 6.62742 12 0 12C0 5.37258 5.37258 0 12 0ZM12 24C5.37258 24 0 18.6274 0 12C6.62742 12 12 17.3726 12 24ZM24 12C24 18.6274 18.6274 24 12 24C12 17.3726 17.3726 12 24 12ZM23 1.00002C23 6.52285 18.5228 11 13 11C13 5.47716 17.4771 1.00002 23 1.00002Z" fill="black"/>
</g>
<defs>
<clipPath id="clip0_681_5861">
<rect width="24" height="24" fill="white"/>
</clipPath>
</defs>
</svg>
