<svg width="36" height="36" viewBox="0 0 36 36" fill="none" xmlns="http://www.w3.org/2000/svg">
<g clip-path="url(#clip0_1294_13191)">
<path fill-rule="evenodd" clip-rule="evenodd" d="M17.9981 10C17.9981 14.4183 14.4163 18 9.99805 18C9.99805 13.5817 13.5798 10 17.9981 10ZM17.9981 26C13.5798 26 9.99805 22.4183 9.99805 18C14.4163 18 17.9981 21.5817 17.9981 26ZM25.998 18C25.998 22.4183 22.4163 26 17.9981 26C17.9981 21.5817 21.5798 18 25.998 18ZM25.3314 10.6667C25.3314 14.3486 22.3466 17.3333 18.6647 17.3333C18.6647 13.6514 21.6495 10.6667 25.3314 10.6667Z" fill="white"/>
</g>
<defs>
<clipPath id="clip0_1294_13191">
<rect width="16" height="16" fill="white" transform="translate(9.99805 10)"/>
</clipPath>
</defs>
</svg>
