<svg width="22" height="22" viewBox="0 0 22 22" fill="none" xmlns="http://www.w3.org/2000/svg">
<circle cx="11" cy="11" r="7" fill="#FE5BAA"/>
<path d="M11 14.4286C12.8935 14.4286 14.4286 12.8935 14.4286 11C14.4286 9.10645 12.8935 7.57143 11 7.57143C9.10645 7.57143 7.57143 9.10645 7.57143 11C7.57143 12.8935 9.10645 14.4286 11 14.4286Z" fill="black"/>
<path fill-rule="evenodd" clip-rule="evenodd" d="M19 11C19 15.4183 15.4183 19 11 19C6.58172 19 3 15.4183 3 11C3 6.58172 6.58172 3 11 3C15.4183 3 19 6.58172 19 11ZM16.7143 11C16.7143 14.1559 14.1559 16.7143 11 16.7143C7.84409 16.7143 5.28571 14.1559 5.28571 11C5.28571 7.84409 7.84409 5.28571 11 5.28571C14.1559 5.28571 16.7143 7.84409 16.7143 11Z" fill="black"/>
</svg>
