<svg width="1728" height="1000" viewBox="0 0 1728 1000" fill="none" xmlns="http://www.w3.org/2000/svg">
<g clip-path="url(#clip0_581_5423)">
<path d="M862.5 814L-52 745.5L-41 1077L850 1050L862.5 814Z" fill="#FE5BAA"/>
<path d="M865.5 814L1780 745.5L1769 1077L878 1050L865.5 814Z" fill="#FE5BAA"/>
<path fill-rule="evenodd" clip-rule="evenodd" d="M-53.5547 743.879L864 812.608L1781.55 743.879L1770.45 1078.54L876.575 1051.46L864 814.04L851.425 1051.46L-42.4497 1078.54L-53.5547 743.879ZM-50.4455 747.121L-39.5505 1075.46L848.575 1048.54L860.924 815.386L-50.4455 747.121ZM867.076 815.386L879.425 1048.54L1767.55 1075.46L1778.45 747.121L867.076 815.386Z" fill="black"/>
<path d="M840.5 718L-67 497L-57.5 756.5L831 831.5L840.5 718Z" fill="#CB4988"/>
<path d="M887.5 718L1795 497L1785.5 756.5L897 831.5L887.5 718Z" fill="#CB4988"/>
<path fill-rule="evenodd" clip-rule="evenodd" d="M-68.5713 495.073L842.102 716.846L832.37 833.121L-58.9501 757.883L-68.5713 495.073ZM1796.57 495.073L1786.95 757.883L895.631 833.121L885.898 716.846L1796.57 495.073ZM-65.4282 498.927L-56.0494 755.117L829.631 829.879L838.898 719.154L-65.4282 498.927ZM889.102 719.154L898.37 829.879L1784.05 755.117L1793.43 498.927L889.102 719.154Z" fill="black"/>
<path d="M776.5 665L-71 146.5L-40 509.5L776.5 749.5V665Z" fill="#7F2E55"/>
<path d="M951.5 665L1799 146.5L1768 509.5L951.5 749.5V665Z" fill="#7F2E55"/>
<path fill-rule="evenodd" clip-rule="evenodd" d="M-72.7471 143.673L778 664.159V751.504L-41.4074 510.65L-72.7471 143.673ZM1800.75 143.673L1769.41 510.65L950 751.504V664.159L1800.75 143.673ZM-69.2533 149.327L-38.5929 508.35L775 747.496V665.841L-69.2533 149.327ZM953 665.841V747.496L1766.59 508.35L1797.25 149.327L953 665.841Z" fill="black"/>
<path d="M824 651.5L-37 -31V172.5L808 719.5L824 651.5Z" fill="#331222"/>
<path d="M904 651.5L1765 -31V172.5L920 719.5L904 651.5Z" fill="#331222"/>
<path fill-rule="evenodd" clip-rule="evenodd" d="M-38.5 -34.103L825.678 650.916L808.972 721.916L-38.5 173.316V-34.103ZM1766.5 -34.103V173.316L919.028 721.916L902.322 650.916L1766.5 -34.103ZM-35.5 -27.8968V171.684L807.028 717.084L822.322 652.084L-35.5 -27.8968ZM905.678 652.084L920.972 717.084L1763.5 171.684V-27.8968L905.678 652.084Z" fill="black"/>
</g>
<defs>
<clipPath id="clip0_581_5423">
<rect width="1728" height="1000" fill="white"/>
</clipPath>
</defs>
</svg>
